# xmcd CD database file generated by Grip 3.0.0
# 
# Track frame offsets:
#       150
#       18545
#       31980
#       57005
#       87940
#       107000
#       131235
#       151685
#       166705
#       189390
#       209359
#       225857
#       243484
#       263312
#       277552
#       297422
#       318180
#       337230
# 
# Disc length: 4535 seconds
# 
# Revision: 5
# Processed by: cddbd v1.4PL0 Copyright (c) Steve Scherf et al.
# Submitted via: Grip 3.0.0
# 
DISCID=e511b512
DTITLE=Tom Waits - Mule Variations
DYEAR=1999
DGENRE=Blues
TTITLE0=Big In Japan
TTITLE1=Lowside Of The Road
TTITLE2=Hold On
TTITLE3=Get Behind The Mule
TTITLE4=House Where Nobody Lives
TTITLE5=Cold Water
TTITLE6=Pony
TTITLE7=What's He Building?
TTITLE8=Black Market Baby
TTITLE9=Eyeball Kid
TTITLE10=Picture In A Frame
TTITLE11=Chocolate Jesus
TTITLE12=Georgia Lee
TTITLE13=Filipino Box Spring Hog
TTITLE14=Take It With Me
TTITLE15=Come On Up To The House
TTITLE16=Buzz Fledderjohn
TTITLE17=Big Face Money
EXTD=YEAR: 2000 ID3G:   0
EXTT0=
EXTT1=
EXTT2=
EXTT3=
EXTT4=
EXTT5=
EXTT6=
EXTT7=
EXTT8=
EXTT9=
EXTT10=
EXTT11=
EXTT12=
EXTT13=
EXTT14=
EXTT15=
EXTT16=
EXTT17=
PLAYORDER=
